<svg xmlns="http://www.w3.org/2000/svg" viewBox="0 0 1600 900" role="img" aria-labelledby="t d">
<title id="t">Las Vegas skyline at dusk</title><desc id="d">A refined illustrated skyline with desert mountains, city towers, and glowing lights.</desc>
<defs>
  <linearGradient id="sky" x1="0" y1="0" x2="0" y2="1"><stop stop-color="#09182d"/><stop offset=".52" stop-color="#17365b"/><stop offset="1" stop-color="#d69a63"/></linearGradient>
  <linearGradient id="glow" x1="0" y1="0" x2="1" y2="0"><stop stop-color="#d4a84f" stop-opacity="0"/><stop offset=".5" stop-color="#f3cf81" stop-opacity=".8"/><stop offset="1" stop-color="#d4a84f" stop-opacity="0"/></linearGradient>
  <filter id="blur"><feGaussianBlur stdDeviation="18"/></filter>
</defs>
<rect width="1600" height="900" fill="url(#sky)"/>
<circle cx="1210" cy="210" r="90" fill="#f8dca4" opacity=".17" filter="url(#blur)"/>
<path d="M0 510 180 390l120 70 170-150 125 110 150-95 150 130 135-105 120 95 150-140 220 190V900H0Z" fill="#0b1d34" opacity=".84"/>
<path d="M0 580 220 460l125 70 160-110 160 90 160-75 170 95 160-90 185 90 180-110 300 165V900H0Z" fill="#102744"/>
<g fill="#10233d" stroke="#d4a84f" stroke-opacity=".4" stroke-width="2">
  <rect x="90" y="520" width="150" height="250" rx="7"/><rect x="270" y="455" width="195" height="315" rx="7"/>
  <rect x="500" y="565" width="110" height="205" rx="5"/><rect x="640" y="405" width="170" height="365" rx="8"/>
  <rect x="850" y="510" width="150" height="260" rx="6"/><rect x="1040" y="345" width="110" height="425" rx="8"/>
  <rect x="1195" y="485" width="190" height="285" rx="7"/><rect x="1420" y="430" width="125" height="340" rx="6"/>
</g>
<g fill="#f3cf81" opacity=".85">
  <g id="windows"><rect x="115" y="550" width="14" height="8"/><rect x="150" y="550" width="14" height="8"/><rect x="185" y="550" width="14" height="8"/><rect x="115" y="585" width="14" height="8"/><rect x="150" y="585" width="14" height="8"/><rect x="185" y="585" width="14" height="8"/></g>
  <use href="#windows" x="190" y="-70"/><use href="#windows" x="415" y="45"/><use href="#windows" x="555" y="-100"/><use href="#windows" x="765" y="5"/><use href="#windows" x="955" y="-160"/><use href="#windows" x="1110" y="-25"/><use href="#windows" x="1330" y="-85"/>
</g>
<g transform="translate(1095 250)">
  <path d="M0 520 62 0l62 520Z" fill="#b88335"/><path d="M20 450h84M27 390h70M35 325h54M43 255h38M50 185h24M57 110h10" stroke="#ffe2a4" stroke-width="8"/>
  <path d="M-38 520h200" stroke="#f5ce79" stroke-width="14"/>
</g>
<ellipse cx="920" cy="795" rx="690" ry="34" fill="url(#glow)" opacity=".8"/>
<g fill="#f5ce79" opacity=".9"><circle cx="180" cy="800" r="4"/><circle cx="260" cy="815" r="3"/><circle cx="410" cy="790" r="4"/><circle cx="560" cy="820" r="3"/><circle cx="740" cy="798" r="4"/><circle cx="880" cy="820" r="3"/><circle cx="1020" cy="792" r="4"/><circle cx="1320" cy="815" r="4"/><circle cx="1480" cy="795" r="3"/></g>
</svg>
