<svg xmlns="http://www.w3.org/2000/svg" viewBox="0 0 560 140" role="img" aria-labelledby="title desc">
<title id="title">LawMart Document Preparation</title><desc id="desc">Courthouse column and scales logo</desc>
<defs><linearGradient id="g" x1="0" x2="1"><stop stop-color="#d89b2b"/><stop offset="1" stop-color="#f4c86a"/></linearGradient></defs>
<g fill="none" stroke="#071f3c" stroke-width="8" stroke-linecap="round" stroke-linejoin="round">
<path d="M27 34h96M38 23h74M43 48h66M52 51v52M69 51v52M86 51v52M103 51v52M39 108h72M29 123h92"/>
<path d="M75 22v26M57 36h36M57 36c0 20-22 20-22 0M93 36c0 20 22 20 22 0"/>
</g>
<g fill="url(#g)"><path d="M50 52h8v48h-8zM67 52h8v48h-8zM84 52h8v48h-8zM101 52h8v48h-8z"/><circle cx="75" cy="21" r="6"/></g>
<text x="145" y="80" fill="#071f3c" font-family="Georgia,serif" font-size="62" font-weight="700">LAW</text>
<text x="294" y="80" fill="#d89b2b" font-family="Georgia,serif" font-size="62" font-weight="700">MART</text>
<text x="150" y="113" fill="#263c55" font-family="Arial,sans-serif" font-size="20" letter-spacing="6">DOCUMENT PREPARATION</text>
</svg>
