<svg xmlns="http://www.w3.org/2000/svg" viewBox="0 0 420 96" role="img" aria-labelledby="t d">
<title id="t">LawMart Document Preparation</title><desc id="d">A navy and gold courthouse column with scales beside the LawMart wordmark.</desc>
<rect width="420" height="96" fill="none"/>
<g transform="translate(3 4)">
  <path d="M38 8 10 24h56L38 8Z" fill="#d4a84f"/>
  <rect x="14" y="28" width="48" height="6" rx="2" fill="#0d2340"/>
  <rect x="18" y="36" width="6" height="34" rx="2" fill="#0d2340"/>
  <rect x="34" y="36" width="6" height="34" rx="2" fill="#0d2340"/>
  <rect x="50" y="36" width="6" height="34" rx="2" fill="#0d2340"/>
  <rect x="10" y="72" width="56" height="7" rx="2" fill="#0d2340"/>
  <path d="M38 10v24M25 18h26" stroke="#0d2340" stroke-width="2.4" stroke-linecap="round"/>
  <path d="m25 18-9 12m9-12 9 12m17-12-9 12m9-12 9 12" stroke="#d4a84f" stroke-width="2"/>
  <path d="M10 31h13c0 6-3 9-6.5 9S10 37 10 31Zm43 0h13c0 6-3 9-6.5 9S53 37 53 31Z" fill="#d4a84f"/>
</g>
<text x="82" y="52" font-family="Georgia, 'Times New Roman', serif" font-size="49" font-weight="700" fill="#0d2340">Law<tspan fill="#d4a84f">Mart</tspan></text>
<text x="86" y="77" font-family="Arial, sans-serif" font-size="13" font-weight="700" letter-spacing="4.5" fill="#5c6878">DOCUMENT PREPARATION</text>
</svg>
